G04*
G04 #@! TF.GenerationSoftware,Altium Limited,Altium Designer,18.1.9 (240)*
G04*
G04 Layer_Color=16711935*
%FSLAX25Y25*%
%MOIN*%
G70*
G01*
G75*
%ADD113C,0.05721*%
%ADD114O,0.08871X0.06902*%
%ADD115C,0.06706*%
%ADD116R,0.06706X0.06706*%
%ADD117C,0.07300*%
%ADD118C,0.03162*%
%ADD119C,0.07296*%
%ADD120C,0.21469*%
%ADD121C,0.16548*%
%ADD122C,0.06737*%
D113*
X209960Y52995D02*
D03*
X190275D02*
D03*
D114*
X213897Y42365D02*
D03*
X186338D02*
D03*
D115*
X229261Y201561D02*
D03*
Y211561D02*
D03*
X207128Y117200D02*
D03*
X212362Y236620D02*
D03*
Y246620D02*
D03*
X154980Y236557D02*
D03*
Y246557D02*
D03*
X211910Y307211D02*
D03*
Y317211D02*
D03*
X154882Y307218D02*
D03*
Y317218D02*
D03*
X208268Y191969D02*
D03*
Y181968D02*
D03*
D116*
X229261Y221561D02*
D03*
X207128Y107200D02*
D03*
X212362Y256620D02*
D03*
X154980Y256557D02*
D03*
X211910Y327211D02*
D03*
X154882Y327218D02*
D03*
X208268Y201969D02*
D03*
D117*
X141339Y158268D02*
D03*
X163779Y157874D02*
D03*
X152362Y158268D02*
D03*
X279471Y225180D02*
D03*
X171588Y49112D02*
D03*
X263605Y225180D02*
D03*
X165118Y178666D02*
D03*
X154094Y178665D02*
D03*
X143071Y178667D02*
D03*
X165118Y210896D02*
D03*
X154095Y210896D02*
D03*
X143071Y210897D02*
D03*
X180335Y239789D02*
D03*
X180315Y251251D02*
D03*
X123091Y239628D02*
D03*
X123031Y251108D02*
D03*
X179921Y310478D02*
D03*
X179528Y321600D02*
D03*
X75590Y211024D02*
D03*
X122835Y321502D02*
D03*
X122893Y310486D02*
D03*
X314094Y283740D02*
D03*
X346378Y283642D02*
D03*
X435984Y283692D02*
D03*
X468267Y283693D02*
D03*
X253484Y283646D02*
D03*
X285767Y283677D02*
D03*
X407441Y283661D02*
D03*
X375157Y283594D02*
D03*
X89081Y163779D02*
D03*
X45472Y340354D02*
D03*
D118*
X312601Y59842D02*
D03*
X359844D02*
D03*
X359845Y145705D02*
D03*
X312601D02*
D03*
X379592Y146063D02*
D03*
X379592Y60236D02*
D03*
X492977Y60236D02*
D03*
X492978Y146062D02*
D03*
X445733Y146062D02*
D03*
X445734Y60236D02*
D03*
X426443Y146063D02*
D03*
X426836Y60236D02*
D03*
D119*
X470114Y371752D02*
D03*
X456335D02*
D03*
X442555D02*
D03*
X470114Y389469D02*
D03*
X456335D02*
D03*
X442555D02*
D03*
X335469Y371752D02*
D03*
X321689D02*
D03*
X335469Y389469D02*
D03*
X321689D02*
D03*
X192161Y371752D02*
D03*
Y389469D02*
D03*
X85075Y371752D02*
D03*
X71295D02*
D03*
X85075Y389469D02*
D03*
X71295D02*
D03*
X430350Y371752D02*
D03*
X418539D02*
D03*
X406728D02*
D03*
X394917D02*
D03*
X383106D02*
D03*
X371295D02*
D03*
X359484D02*
D03*
X347673D02*
D03*
X430350Y389469D02*
D03*
X418539D02*
D03*
X406728D02*
D03*
X394917D02*
D03*
X383106D02*
D03*
X371295D02*
D03*
X359484D02*
D03*
X347673D02*
D03*
X298264Y371752D02*
D03*
X286453D02*
D03*
X274642D02*
D03*
X262831D02*
D03*
X251020D02*
D03*
X239209D02*
D03*
X227398D02*
D03*
X215587D02*
D03*
X298264Y389469D02*
D03*
X286453D02*
D03*
X274642D02*
D03*
X262831D02*
D03*
X251020D02*
D03*
X239209D02*
D03*
X227398D02*
D03*
X215587D02*
D03*
X179957Y371752D02*
D03*
X168146D02*
D03*
X156335D02*
D03*
X144524D02*
D03*
X132713D02*
D03*
X120902D02*
D03*
X109091D02*
D03*
X97280D02*
D03*
X179957Y389469D02*
D03*
X168146D02*
D03*
X156335D02*
D03*
X144524D02*
D03*
X132713D02*
D03*
X120902D02*
D03*
X109091D02*
D03*
X97280D02*
D03*
D120*
X51413Y411909D02*
D03*
X204366D02*
D03*
X309484D02*
D03*
X489996D02*
D03*
D121*
X115972Y48907D02*
D03*
Y139852D02*
D03*
D122*
X164476Y119379D02*
D03*
Y109379D02*
D03*
Y99379D02*
D03*
Y69379D02*
D03*
Y79379D02*
D03*
Y89379D02*
D03*
M02*
