G04*
G04 #@! TF.GenerationSoftware,Altium Limited,Altium Designer,18.1.9 (240)*
G04*
G04 Layer_Color=8421504*
%FSLAX25Y25*%
%MOIN*%
G70*
G01*
G75*
%ADD19R,0.05906X0.04528*%
%ADD20R,0.04528X0.08661*%
%ADD21R,0.04567X0.04724*%
%ADD22R,0.04567X0.04921*%
%ADD23R,0.03740X0.09843*%
%ADD24R,0.03150X0.04882*%
%ADD25R,0.01575X0.05315*%
%ADD26R,0.06102X0.06102*%
%ADD27R,0.02756X0.03543*%
%ADD28O,0.02362X0.07480*%
%ADD29R,0.04331X0.04331*%
%ADD30R,0.10000X0.20000*%
%ADD31C,0.70000*%
%ADD32O,0.05709X0.01181*%
G04:AMPARAMS|DCode=33|XSize=13.78mil|YSize=64.96mil|CornerRadius=2mil|HoleSize=0mil|Usage=FLASHONLY|Rotation=270.000|XOffset=0mil|YOffset=0mil|HoleType=Round|Shape=RoundedRectangle|*
%AMROUNDEDRECTD33*
21,1,0.01378,0.06097,0,0,270.0*
21,1,0.00978,0.06496,0,0,270.0*
1,1,0.00400,-0.03048,-0.00489*
1,1,0.00400,-0.03048,0.00489*
1,1,0.00400,0.03048,0.00489*
1,1,0.00400,0.03048,-0.00489*
%
%ADD33ROUNDEDRECTD33*%
%ADD34O,0.01181X0.05709*%
%ADD35R,0.03937X0.03543*%
%ADD36R,0.03543X0.03937*%
%ADD37R,0.03504X0.03701*%
%ADD38R,0.04331X0.04331*%
%ADD39R,0.03701X0.03504*%
%ADD40R,0.03543X0.02756*%
%ADD41R,0.02913X0.10984*%
%ADD42R,0.03150X0.03543*%
%ADD43R,0.04134X0.05118*%
%ADD44R,0.04331X0.07480*%
%ADD45O,0.07087X0.01378*%
%ADD46R,0.02362X0.04724*%
%ADD47R,0.11024X0.05315*%
G04:AMPARAMS|DCode=48|XSize=122.05mil|YSize=203.94mil|CornerRadius=1.83mil|HoleSize=0mil|Usage=FLASHONLY|Rotation=180.000|XOffset=0mil|YOffset=0mil|HoleType=Round|Shape=RoundedRectangle|*
%AMROUNDEDRECTD48*
21,1,0.12205,0.20028,0,0,180.0*
21,1,0.11839,0.20394,0,0,180.0*
1,1,0.00366,-0.05919,0.10014*
1,1,0.00366,0.05919,0.10014*
1,1,0.00366,0.05919,-0.10014*
1,1,0.00366,-0.05919,-0.10014*
%
%ADD48ROUNDEDRECTD48*%
%ADD49O,0.02362X0.05709*%
%ADD50R,0.03661X0.03189*%
%ADD51R,0.06693X0.03740*%
%ADD52O,0.02362X0.05906*%
%ADD53R,0.14200X0.03700*%
%ADD54R,0.43900X0.40900*%
%ADD55R,0.02362X0.01968*%
%ADD56R,0.03189X0.03661*%
%ADD57R,0.19291X0.24410*%
%ADD58R,0.03937X0.08268*%
%ADD59R,0.28347X0.21850*%
%ADD60R,0.08661X0.03937*%
%ADD61R,0.12598X0.09882*%
%ADD62O,0.02362X0.05315*%
%ADD63R,0.03740X0.10236*%
%ADD64R,0.21300X0.11400*%
%ADD65R,0.04724X0.02756*%
%ADD66R,0.03937X0.03402*%
D19*
X244156Y95236D02*
D03*
X274786D02*
D03*
D20*
X291735Y92106D02*
D03*
X235475Y46909D02*
D03*
D21*
X237069Y90807D02*
D03*
D22*
Y55374D02*
D03*
D23*
X292128Y47500D02*
D03*
D24*
X244707Y45020D02*
D03*
X249038D02*
D03*
X253369D02*
D03*
X257699D02*
D03*
X262030D02*
D03*
X266361D02*
D03*
X270691D02*
D03*
X275022D02*
D03*
D25*
X195000Y52995D02*
D03*
X197559D02*
D03*
X200118D02*
D03*
X202677D02*
D03*
X205236D02*
D03*
D26*
X196181Y42365D02*
D03*
X204055D02*
D03*
D27*
X178740Y129330D02*
D03*
X184252D02*
D03*
X298917Y172835D02*
D03*
X293406D02*
D03*
X296850Y150394D02*
D03*
X291339D02*
D03*
X209195Y126487D02*
D03*
X214707D02*
D03*
X197146Y171177D02*
D03*
X202658D02*
D03*
X211951Y171177D02*
D03*
X206439D02*
D03*
D28*
X181083Y102864D02*
D03*
X186083D02*
D03*
X191083D02*
D03*
X196083D02*
D03*
X181083Y121368D02*
D03*
X186083D02*
D03*
X191083D02*
D03*
X196083D02*
D03*
D29*
X313387Y69390D02*
D03*
Y76476D02*
D03*
X212205Y78164D02*
D03*
Y71077D02*
D03*
X220768Y78164D02*
D03*
Y71077D02*
D03*
X118504Y164732D02*
D03*
Y171818D02*
D03*
X127165Y171740D02*
D03*
Y164653D02*
D03*
X192828Y143416D02*
D03*
Y136329D02*
D03*
X192828Y152077D02*
D03*
Y159164D02*
D03*
X126142Y201447D02*
D03*
Y194360D02*
D03*
X134803Y201447D02*
D03*
Y194360D02*
D03*
X167323Y344882D02*
D03*
Y337795D02*
D03*
X171653Y360520D02*
D03*
Y353433D02*
D03*
X162854Y360520D02*
D03*
Y353433D02*
D03*
X500000Y355817D02*
D03*
Y348730D02*
D03*
X491307Y355817D02*
D03*
Y348730D02*
D03*
X377775Y224213D02*
D03*
Y231299D02*
D03*
X386043Y224213D02*
D03*
Y231299D02*
D03*
X369311D02*
D03*
Y224213D02*
D03*
X360944Y231299D02*
D03*
Y224213D02*
D03*
X316358Y232480D02*
D03*
Y239567D02*
D03*
X307795Y232480D02*
D03*
Y239567D02*
D03*
X369311Y208760D02*
D03*
Y215846D02*
D03*
X360945D02*
D03*
Y208760D02*
D03*
X380380Y129527D02*
D03*
Y136614D02*
D03*
X380380Y120866D02*
D03*
Y113779D02*
D03*
X313388Y120571D02*
D03*
Y113484D02*
D03*
X359058Y120571D02*
D03*
Y113484D02*
D03*
X359057Y85039D02*
D03*
Y92126D02*
D03*
X313388Y85000D02*
D03*
Y92086D02*
D03*
X313388Y129133D02*
D03*
Y136220D02*
D03*
X359057Y76575D02*
D03*
Y69488D02*
D03*
X359057Y129134D02*
D03*
Y136220D02*
D03*
X446521Y76772D02*
D03*
Y69685D02*
D03*
X446521Y85283D02*
D03*
Y92370D02*
D03*
X446522Y129330D02*
D03*
Y136417D02*
D03*
X446522Y121063D02*
D03*
Y113976D02*
D03*
X492190Y129330D02*
D03*
Y136417D02*
D03*
X492190Y121016D02*
D03*
Y113929D02*
D03*
X492191Y85283D02*
D03*
Y92370D02*
D03*
X492191Y76772D02*
D03*
Y69685D02*
D03*
X425773Y76772D02*
D03*
Y69685D02*
D03*
X425655Y120866D02*
D03*
Y113779D02*
D03*
X425655Y129527D02*
D03*
Y136614D02*
D03*
X425754Y85283D02*
D03*
Y92370D02*
D03*
X380380Y85295D02*
D03*
Y92382D02*
D03*
X380380Y76772D02*
D03*
Y69685D02*
D03*
X183327Y266560D02*
D03*
Y273647D02*
D03*
X208841Y266560D02*
D03*
Y273647D02*
D03*
X222165Y235065D02*
D03*
Y242151D02*
D03*
X222165Y258096D02*
D03*
Y251009D02*
D03*
X125945Y266498D02*
D03*
Y273585D02*
D03*
X151339Y266498D02*
D03*
Y273585D02*
D03*
X165315Y235199D02*
D03*
Y242285D02*
D03*
X165315Y258230D02*
D03*
Y251144D02*
D03*
X208465Y337348D02*
D03*
Y344435D02*
D03*
X183071Y337348D02*
D03*
Y344435D02*
D03*
X221752Y328687D02*
D03*
Y321600D02*
D03*
X221752Y305557D02*
D03*
Y312644D02*
D03*
X164724Y305663D02*
D03*
Y312750D02*
D03*
X164724Y328695D02*
D03*
Y321608D02*
D03*
X126142Y337356D02*
D03*
Y344443D02*
D03*
X151437Y337356D02*
D03*
Y344443D02*
D03*
X304449Y277441D02*
D03*
Y284527D02*
D03*
X426338Y277461D02*
D03*
Y284547D02*
D03*
X477913Y277461D02*
D03*
Y284547D02*
D03*
X356023Y277342D02*
D03*
Y284429D02*
D03*
X295449Y277347D02*
D03*
Y284434D02*
D03*
X243838Y277347D02*
D03*
Y284434D02*
D03*
X365610Y277461D02*
D03*
Y284547D02*
D03*
X417086Y277461D02*
D03*
Y284547D02*
D03*
X87795Y203150D02*
D03*
Y210236D02*
D03*
X89468Y292012D02*
D03*
Y284925D02*
D03*
D30*
X406575Y214173D02*
D03*
X496575D02*
D03*
D31*
X451575D02*
D03*
D32*
X283563Y140266D02*
D03*
Y165857D02*
D03*
Y167825D02*
D03*
X222736Y171762D02*
D03*
Y169794D02*
D03*
Y167825D02*
D03*
Y165857D02*
D03*
Y163888D02*
D03*
Y161919D02*
D03*
Y159951D02*
D03*
Y157983D02*
D03*
Y156014D02*
D03*
Y154045D02*
D03*
Y152077D02*
D03*
Y150109D02*
D03*
Y148140D02*
D03*
Y146171D02*
D03*
Y144203D02*
D03*
Y142235D02*
D03*
Y140266D02*
D03*
Y138297D02*
D03*
Y136329D02*
D03*
Y134361D02*
D03*
Y132392D02*
D03*
Y130423D02*
D03*
Y128455D02*
D03*
Y126487D02*
D03*
Y124518D02*
D03*
X283563D02*
D03*
Y126487D02*
D03*
Y128455D02*
D03*
Y130423D02*
D03*
Y132392D02*
D03*
Y134361D02*
D03*
Y136329D02*
D03*
Y138297D02*
D03*
Y142235D02*
D03*
Y144203D02*
D03*
Y146171D02*
D03*
Y148140D02*
D03*
Y150109D02*
D03*
Y152077D02*
D03*
Y154045D02*
D03*
Y156014D02*
D03*
Y157983D02*
D03*
Y159951D02*
D03*
Y161919D02*
D03*
Y163888D02*
D03*
Y169794D02*
D03*
Y171762D02*
D03*
D33*
X326004Y221161D02*
D03*
Y223721D02*
D03*
Y226279D02*
D03*
X350216Y205807D02*
D03*
Y208366D02*
D03*
Y210925D02*
D03*
Y213484D02*
D03*
Y216043D02*
D03*
Y218602D02*
D03*
Y221161D02*
D03*
Y223721D02*
D03*
Y226279D02*
D03*
Y228839D02*
D03*
Y231398D02*
D03*
Y233957D02*
D03*
Y236516D02*
D03*
Y239075D02*
D03*
X326004Y205807D02*
D03*
Y208366D02*
D03*
Y210925D02*
D03*
Y213484D02*
D03*
Y216043D02*
D03*
Y218602D02*
D03*
Y228839D02*
D03*
Y231398D02*
D03*
Y233957D02*
D03*
Y236516D02*
D03*
Y239075D02*
D03*
D34*
X229528Y117727D02*
D03*
X231496D02*
D03*
X233465D02*
D03*
X235433D02*
D03*
X237402D02*
D03*
X239370D02*
D03*
X241339D02*
D03*
X243307D02*
D03*
X245276D02*
D03*
X247244D02*
D03*
X249213D02*
D03*
X251181D02*
D03*
X253150D02*
D03*
X255118D02*
D03*
X257087D02*
D03*
X259055D02*
D03*
X261024D02*
D03*
X262992D02*
D03*
X264961D02*
D03*
X266929D02*
D03*
X268898D02*
D03*
X270866D02*
D03*
X272835D02*
D03*
X274803D02*
D03*
X276772D02*
D03*
Y178553D02*
D03*
X274803D02*
D03*
X272835D02*
D03*
X270866D02*
D03*
X268898D02*
D03*
X266929D02*
D03*
X264961D02*
D03*
X262992D02*
D03*
X261024D02*
D03*
X259055D02*
D03*
X257087D02*
D03*
X255118D02*
D03*
X253150D02*
D03*
X251181D02*
D03*
X249213D02*
D03*
X247244D02*
D03*
X245276D02*
D03*
X243307D02*
D03*
X241339D02*
D03*
X239370D02*
D03*
X237402D02*
D03*
X235433D02*
D03*
X233465D02*
D03*
X231496D02*
D03*
X229528D02*
D03*
D35*
X104724Y164937D02*
D03*
Y171236D02*
D03*
X305906Y42815D02*
D03*
Y49114D02*
D03*
X299606Y42812D02*
D03*
Y49112D02*
D03*
X312205Y42815D02*
D03*
Y49114D02*
D03*
X58100Y309842D02*
D03*
Y303543D02*
D03*
D36*
X172736Y63567D02*
D03*
X179035D02*
D03*
X172736Y70079D02*
D03*
X179035D02*
D03*
X172736Y76329D02*
D03*
X179035D02*
D03*
X104921Y210246D02*
D03*
X111221D02*
D03*
X282620Y246046D02*
D03*
X276321D02*
D03*
X276004Y252471D02*
D03*
X282303D02*
D03*
X260454Y252471D02*
D03*
X266754D02*
D03*
X266754Y246046D02*
D03*
X260455D02*
D03*
X79528Y221654D02*
D03*
X85827D02*
D03*
D37*
X104989Y203947D02*
D03*
X111170D02*
D03*
D38*
X104528Y196427D02*
D03*
X111614D02*
D03*
Y187845D02*
D03*
X104528D02*
D03*
X492093Y340069D02*
D03*
X499180D02*
D03*
X314094Y224016D02*
D03*
X307008D02*
D03*
X361535Y200295D02*
D03*
X368622D02*
D03*
X492191Y103149D02*
D03*
X499277D02*
D03*
X425655D02*
D03*
X432742D02*
D03*
X359057Y102756D02*
D03*
X366144D02*
D03*
X455183Y162205D02*
D03*
X462270D02*
D03*
X483529Y162205D02*
D03*
X476443D02*
D03*
X483529Y44094D02*
D03*
X476442D02*
D03*
X476442Y52755D02*
D03*
X483529D02*
D03*
X455183Y44094D02*
D03*
X462269D02*
D03*
X343309Y153543D02*
D03*
X350396D02*
D03*
X329136Y153543D02*
D03*
X322049D02*
D03*
X343309Y52362D02*
D03*
X350396D02*
D03*
X329136Y52460D02*
D03*
X322050D02*
D03*
X322047Y162205D02*
D03*
X329134D02*
D03*
X350396Y162204D02*
D03*
X343309D02*
D03*
X329134Y43898D02*
D03*
X322047D02*
D03*
X350396Y43898D02*
D03*
X343309D02*
D03*
X462270Y153543D02*
D03*
X455183D02*
D03*
X476443Y153543D02*
D03*
X483529D02*
D03*
X455183Y52755D02*
D03*
X462269D02*
D03*
X329136Y144881D02*
D03*
X322050D02*
D03*
X343309Y144882D02*
D03*
X350396D02*
D03*
X329136Y60925D02*
D03*
X322050D02*
D03*
X343309Y60925D02*
D03*
X350396D02*
D03*
X462269Y61221D02*
D03*
X455183D02*
D03*
X476443Y61220D02*
D03*
X483529D02*
D03*
X462270Y144881D02*
D03*
X455183D02*
D03*
X476443Y144882D02*
D03*
X483529D02*
D03*
Y136415D02*
D03*
X476443D02*
D03*
X455183Y136417D02*
D03*
X462269D02*
D03*
X322050Y69390D02*
D03*
X329136D02*
D03*
X350396Y69390D02*
D03*
X343309D02*
D03*
X350396Y136220D02*
D03*
X343309D02*
D03*
X322050Y136220D02*
D03*
X329136D02*
D03*
X455183Y69685D02*
D03*
X462269D02*
D03*
X483529Y69685D02*
D03*
X476443D02*
D03*
X389075Y162598D02*
D03*
X396161D02*
D03*
X409907Y153937D02*
D03*
X416994D02*
D03*
X396128Y153937D02*
D03*
X389041D02*
D03*
X416994Y162598D02*
D03*
X409907D02*
D03*
X396128Y145275D02*
D03*
X389041D02*
D03*
X416994Y136614D02*
D03*
X409907D02*
D03*
Y145275D02*
D03*
X416994D02*
D03*
X389041Y136614D02*
D03*
X396128D02*
D03*
X410175Y61221D02*
D03*
X417262D02*
D03*
X417262Y52755D02*
D03*
X410175D02*
D03*
X395931Y52755D02*
D03*
X388844D02*
D03*
X395931Y61220D02*
D03*
X388844D02*
D03*
X417262Y44094D02*
D03*
X410175D02*
D03*
X388844Y69685D02*
D03*
X395931D02*
D03*
X388844Y44094D02*
D03*
X395931D02*
D03*
X417262Y69685D02*
D03*
X410175D02*
D03*
X191791Y282112D02*
D03*
X184705D02*
D03*
X207441D02*
D03*
X200354D02*
D03*
X194685Y227559D02*
D03*
X187598D02*
D03*
X202756Y227559D02*
D03*
X209842D02*
D03*
X134409Y282049D02*
D03*
X127323D02*
D03*
X149961D02*
D03*
X142874D02*
D03*
X137165Y226636D02*
D03*
X130079D02*
D03*
X145630Y226636D02*
D03*
X152717D02*
D03*
X206988Y352900D02*
D03*
X199902D02*
D03*
X191535D02*
D03*
X184449D02*
D03*
X193996Y297388D02*
D03*
X186909D02*
D03*
X202462Y297387D02*
D03*
X209549D02*
D03*
X134606Y352907D02*
D03*
X127519D02*
D03*
X150157D02*
D03*
X143071D02*
D03*
X137066Y297494D02*
D03*
X129980D02*
D03*
X145531Y297494D02*
D03*
X152618D02*
D03*
X281141Y264650D02*
D03*
X274055D02*
D03*
X258208Y264650D02*
D03*
X265295D02*
D03*
X283897Y310350D02*
D03*
X290984D02*
D03*
X315866Y310413D02*
D03*
X308779D02*
D03*
X344409Y310512D02*
D03*
X351496D02*
D03*
X466496Y310335D02*
D03*
X473582D02*
D03*
X437854Y310335D02*
D03*
X430767D02*
D03*
X464035Y264536D02*
D03*
X456949D02*
D03*
X440807Y264536D02*
D03*
X447893D02*
D03*
X342145Y264646D02*
D03*
X335059D02*
D03*
X319193Y264646D02*
D03*
X326279D02*
D03*
X255354Y310350D02*
D03*
X248267D02*
D03*
X376929Y310236D02*
D03*
X369842D02*
D03*
X405571Y310236D02*
D03*
X412657D02*
D03*
X379980Y264469D02*
D03*
X387067D02*
D03*
X402913Y264469D02*
D03*
X395827D02*
D03*
X72244Y163670D02*
D03*
X79331D02*
D03*
X72244Y203048D02*
D03*
X79331D02*
D03*
X98032Y293587D02*
D03*
X105118D02*
D03*
Y284925D02*
D03*
X98032D02*
D03*
X88618Y316535D02*
D03*
X81532D02*
D03*
X97278Y308366D02*
D03*
X90192D02*
D03*
X183465Y93307D02*
D03*
X190551D02*
D03*
D39*
X111020Y164996D02*
D03*
Y171177D02*
D03*
D40*
X254331Y103543D02*
D03*
Y109055D02*
D03*
X274803Y104833D02*
D03*
Y110345D02*
D03*
X248031Y103543D02*
D03*
Y109055D02*
D03*
X200000Y186556D02*
D03*
Y192068D02*
D03*
X229528Y192441D02*
D03*
Y186929D02*
D03*
X224094D02*
D03*
Y192441D02*
D03*
D41*
X284642Y210374D02*
D03*
X279642D02*
D03*
X274642D02*
D03*
X269642D02*
D03*
X264642D02*
D03*
Y194350D02*
D03*
X269642D02*
D03*
X274642D02*
D03*
X279642D02*
D03*
X284642D02*
D03*
D42*
X279471Y240534D02*
D03*
X283211Y232660D02*
D03*
X275730D02*
D03*
X263605Y240534D02*
D03*
X267345Y232660D02*
D03*
X259865D02*
D03*
X343309Y121528D02*
D03*
X339569Y129402D02*
D03*
X347050D02*
D03*
X329136Y129527D02*
D03*
X332876Y121653D02*
D03*
X325396D02*
D03*
X343309Y75984D02*
D03*
X339569Y83858D02*
D03*
X347050D02*
D03*
X329136D02*
D03*
X332876Y75984D02*
D03*
X325396D02*
D03*
X476443Y76378D02*
D03*
X472702Y84252D02*
D03*
X480183D02*
D03*
X476443Y122047D02*
D03*
X472702Y129921D02*
D03*
X480183D02*
D03*
X462269Y84252D02*
D03*
X466010Y76378D02*
D03*
X458529D02*
D03*
X462269Y129921D02*
D03*
X466010Y122047D02*
D03*
X458529D02*
D03*
X396128Y129921D02*
D03*
X399868Y122047D02*
D03*
X392388D02*
D03*
X410009D02*
D03*
X406269Y129921D02*
D03*
X413750D02*
D03*
X396128Y84252D02*
D03*
X399868Y76378D02*
D03*
X392388D02*
D03*
X410009D02*
D03*
X406269Y84252D02*
D03*
X413750D02*
D03*
D43*
X200604Y152274D02*
D03*
Y143219D02*
D03*
X207887D02*
D03*
Y152274D02*
D03*
D44*
X202069Y164561D02*
D03*
X211912D02*
D03*
D45*
X143858Y203504D02*
D03*
Y201004D02*
D03*
Y198504D02*
D03*
Y196004D02*
D03*
Y193504D02*
D03*
Y191004D02*
D03*
Y188504D02*
D03*
Y186004D02*
D03*
X164331Y203504D02*
D03*
Y201004D02*
D03*
Y198504D02*
D03*
Y196004D02*
D03*
Y193504D02*
D03*
Y191004D02*
D03*
Y188504D02*
D03*
Y186004D02*
D03*
D46*
X202480Y70093D02*
D03*
X198740D02*
D03*
X195000D02*
D03*
Y79148D02*
D03*
X198740D02*
D03*
X202480D02*
D03*
D47*
X382697Y202658D02*
D03*
Y215256D02*
D03*
D48*
X338110Y222441D02*
D03*
D49*
X321223Y92027D02*
D03*
X326223D02*
D03*
X331223D02*
D03*
X336223D02*
D03*
X341223D02*
D03*
X346223D02*
D03*
X351223D02*
D03*
X321223Y113484D02*
D03*
X326223D02*
D03*
X331223D02*
D03*
X336223D02*
D03*
X341223D02*
D03*
X346223D02*
D03*
X351223D02*
D03*
X454356Y92421D02*
D03*
X459356D02*
D03*
X464356D02*
D03*
X469356D02*
D03*
X474356D02*
D03*
X479356D02*
D03*
X484356D02*
D03*
X454356Y113878D02*
D03*
X459356D02*
D03*
X464356D02*
D03*
X469356D02*
D03*
X474356D02*
D03*
X479356D02*
D03*
X484356D02*
D03*
X388088Y92421D02*
D03*
X393088D02*
D03*
X398088D02*
D03*
X403088D02*
D03*
X408088D02*
D03*
X413088D02*
D03*
X418088D02*
D03*
X388088Y113878D02*
D03*
X393088D02*
D03*
X398088D02*
D03*
X403088D02*
D03*
X408088D02*
D03*
X413088D02*
D03*
X418088D02*
D03*
D50*
X176142Y266915D02*
D03*
Y273293D02*
D03*
X216004Y266915D02*
D03*
Y273293D02*
D03*
X118760Y266853D02*
D03*
Y273231D02*
D03*
X158524Y266852D02*
D03*
Y273230D02*
D03*
X215551Y337604D02*
D03*
Y343982D02*
D03*
X175984Y337703D02*
D03*
Y344081D02*
D03*
X158523Y337711D02*
D03*
Y344089D02*
D03*
X119055Y337809D02*
D03*
Y344187D02*
D03*
D51*
X200354Y275419D02*
D03*
Y264789D02*
D03*
X142874Y275356D02*
D03*
Y264726D02*
D03*
X191791Y275419D02*
D03*
Y264789D02*
D03*
X134409Y275356D02*
D03*
Y264726D02*
D03*
X200000Y346207D02*
D03*
Y335577D02*
D03*
X143071Y346215D02*
D03*
Y335585D02*
D03*
X191535Y346207D02*
D03*
Y335577D02*
D03*
X134606Y346215D02*
D03*
Y335585D02*
D03*
X457145Y312106D02*
D03*
Y301476D02*
D03*
X335157Y312283D02*
D03*
Y301653D02*
D03*
X325315Y312283D02*
D03*
Y301653D02*
D03*
X447204Y312106D02*
D03*
Y301476D02*
D03*
X274547Y312122D02*
D03*
Y301493D02*
D03*
X396220Y312008D02*
D03*
Y301378D02*
D03*
X386279Y312008D02*
D03*
Y301378D02*
D03*
X264606Y312122D02*
D03*
Y301492D02*
D03*
D52*
X188622Y236836D02*
D03*
X193622D02*
D03*
X198622D02*
D03*
X203622D02*
D03*
X188622Y258096D02*
D03*
X193622D02*
D03*
X198622D02*
D03*
X203622D02*
D03*
X131339Y236675D02*
D03*
X136339D02*
D03*
X141339D02*
D03*
X146339D02*
D03*
X131339Y257935D02*
D03*
X136339D02*
D03*
X141339D02*
D03*
X146339D02*
D03*
X188169Y307525D02*
D03*
X193169D02*
D03*
X198169D02*
D03*
X203169D02*
D03*
X188169Y328785D02*
D03*
X193169D02*
D03*
X198169D02*
D03*
X203169D02*
D03*
X131240Y307533D02*
D03*
X136240D02*
D03*
X141240D02*
D03*
X146240D02*
D03*
X131240Y328793D02*
D03*
X136240D02*
D03*
X141240D02*
D03*
X146240D02*
D03*
X322736Y273110D02*
D03*
X327736D02*
D03*
X332736D02*
D03*
X337736D02*
D03*
X322736Y294370D02*
D03*
X327736D02*
D03*
X332736D02*
D03*
X337736D02*
D03*
X444626Y273062D02*
D03*
X449626D02*
D03*
X454626D02*
D03*
X459626D02*
D03*
X444626Y294322D02*
D03*
X449626D02*
D03*
X454626D02*
D03*
X459626D02*
D03*
X262126Y273047D02*
D03*
X267126D02*
D03*
X272126D02*
D03*
X277126D02*
D03*
X262126Y294307D02*
D03*
X267126D02*
D03*
X272126D02*
D03*
X277126D02*
D03*
X383799Y273031D02*
D03*
X388799D02*
D03*
X393799D02*
D03*
X398799D02*
D03*
X383799Y294291D02*
D03*
X388799D02*
D03*
X393799D02*
D03*
X398799D02*
D03*
D53*
X49502Y332104D02*
D03*
Y352891D02*
D03*
D54*
X84052Y342498D02*
D03*
D55*
X253779Y302870D02*
D03*
Y295390D02*
D03*
X245905Y299130D02*
D03*
X314390Y302933D02*
D03*
Y295453D02*
D03*
X306516Y299193D02*
D03*
X345984Y295453D02*
D03*
Y302933D02*
D03*
X353858Y299193D02*
D03*
X468071Y295374D02*
D03*
Y302854D02*
D03*
X475945Y299114D02*
D03*
X436378Y302953D02*
D03*
Y295472D02*
D03*
X428504Y299213D02*
D03*
X285374Y295390D02*
D03*
Y302870D02*
D03*
X293248Y299130D02*
D03*
X375354Y302756D02*
D03*
Y295276D02*
D03*
X367480Y299016D02*
D03*
X407145Y295276D02*
D03*
Y302756D02*
D03*
X415019Y299016D02*
D03*
D56*
X471574Y269980D02*
D03*
X477952D02*
D03*
X432775Y270079D02*
D03*
X426397D02*
D03*
X349921Y269901D02*
D03*
X356299D02*
D03*
X311023Y269969D02*
D03*
X304645D02*
D03*
X250177Y270261D02*
D03*
X243799D02*
D03*
X288897Y269969D02*
D03*
X295275D02*
D03*
X372047Y269980D02*
D03*
X365669D02*
D03*
X410649D02*
D03*
X417027D02*
D03*
D57*
X466889Y347835D02*
D03*
X437460D02*
D03*
X345000Y347815D02*
D03*
X315472D02*
D03*
X284389Y347752D02*
D03*
X254862D02*
D03*
X405964Y347835D02*
D03*
X376437Y347835D02*
D03*
D58*
X475866Y321260D02*
D03*
X457913D02*
D03*
X446437D02*
D03*
X428484D02*
D03*
X353976Y321240D02*
D03*
X336023D02*
D03*
X324449D02*
D03*
X306496D02*
D03*
X293366Y321177D02*
D03*
X275413D02*
D03*
X263838D02*
D03*
X245885D02*
D03*
X414941Y321260D02*
D03*
X396988D02*
D03*
X385413Y321260D02*
D03*
X367460D02*
D03*
D59*
X58661Y183355D02*
D03*
D60*
X83465Y192331D02*
D03*
Y174378D02*
D03*
D61*
X74016Y297474D02*
D03*
D62*
X81516Y308400D02*
D03*
X76516D02*
D03*
X71516D02*
D03*
X66516D02*
D03*
X81516Y286549D02*
D03*
X76516D02*
D03*
X71516D02*
D03*
X66516D02*
D03*
D63*
X58972Y215748D02*
D03*
X47948D02*
D03*
D64*
X68110Y270281D02*
D03*
Y232081D02*
D03*
D65*
X58858Y285024D02*
D03*
X44291D02*
D03*
D66*
X96653Y180807D02*
D03*
X104134D02*
D03*
M02*
