M48
;Layer_Color=9474304
;FILE_FORMAT=2:5
INCH,TZ
;TYPE=PLATED
T1F00S00C0.01181
T2F00S00C0.03346
T3F00S00C0.03543
T4F00S00C0.03937
T5F00S00C0.04000
T6F00S00C0.04331
T7F00S00C0.04528
T8F00S00C0.13780
;TYPE=NON_PLATED
T9F00S00C0.15748
%
T01
X159055Y41732
X169626
X190157Y73803
X198655Y83246
X195669Y96063
X203937Y94311
X214744Y94827
X217717Y91732
X220768Y83440
X229261Y80261
X238189Y78740
X238189Y95275
X243937Y90649
X250393Y89764
X251181Y106062
X257537Y103543
X246457Y112323
X241339Y124803
X234646Y124409
X234252Y135827
X237007Y138189
X239764Y140748
X242520Y143416
X233336Y151181
X230374
X229419Y134361
X216734Y135639
Y132677
X205295Y126487
X202362Y124803
X196457Y129528
X200416Y135639
X183465Y116053
X185263Y111231
X176378Y117038
X177165Y95669
X183464Y98031
X186338Y88448
X207707Y74818
X231102Y59055
X227756Y55512
X230374Y46909
X253369Y40945
X257699
X262030Y40881
X282116Y44405
X287008Y43701
X299606Y54328
X292224Y62205
X298695Y73819
X303857Y71761
X307480Y66142
X308010Y79571
X301181Y82077
X296504Y96011
Y105522
X301681Y121016
X309254Y120866
X305360Y133636
X305216Y139171
X303857Y144203
X300787Y144094
X300679Y150109
X303150Y153543
X290935Y144488
X292913Y142116
X268898Y140847
Y137008
Y144882
X262030Y152475
X264961Y155512
X280078Y121980
X270866Y111241
X280656Y95236
X226772Y115354
X163779Y151279
X312601Y145705
X318900Y129380
X353343Y129402
X359845Y145705
X379592Y146063
X385765Y129921
X420143
X426443Y146063
X445733Y146062
X452033Y129921
X432742Y97638
X431102Y76772
X441174
X452033Y76378
X445734Y60236
X426836
X419750Y77559
X385413Y77219
X375591Y76772
X363977Y76575
X353543Y76772
X359844Y59842
X379592Y60236
X396063Y48228
X403088Y43639
X410175Y48032
X462270Y48425
X343306Y48031
X335827Y43443
X329133Y48425
X325590Y48326
X316535Y46162
X312601Y59842
X318898Y76772
X366144Y97244
X499277Y97638
X487663Y73499
X484646Y76476
X492977Y60236
X476378Y48228
X469291Y42323
X486679Y129921
X492978Y146062
X486220Y167323
X481235Y167258
X469291Y161417
X475197Y185827
X468996Y264528
X452421Y264536
X435827Y264666
X409449Y264578
X409055Y248455
X412992Y248425
X409055Y242598
X375512Y237894
X375984Y248819
X374016Y264272
X391496Y264469
X360630Y252100
X357401Y254312
X356417Y230217
Y224902
X356497Y221247
X356516Y216043
X342441Y218110
Y213779
X338110
X333779
Y218110
X338110
Y222441
X342441
Y226772
Y231102
X338110
Y226772
X333779
Y222441
Y231102
X365177Y235433
X375275Y202658
X371447Y170866
X368710Y161811
X357480Y162399
X335827Y162205
X335829Y157792
X322441Y177165
Y180709
X322443Y184320
Y187845
X330728Y264646
X366791Y305610
X427913Y305807
X451575Y214173
X447696Y170866
X437879Y173597
X433235Y173622
X416929Y171260
X402756Y161417
X392618Y172835
X303150Y173000
X298394Y163386
X294094Y164567
X290157Y166141
X293307Y181496
X299192Y187618
X303857Y187487
X308150Y187618
X308150Y202053
X306055Y199959
X294523Y196004
X290551
X288897Y211417
X284642Y228346
X272126Y225197
X271808Y232660
X275730Y241712
X259668Y241715
X257857Y225197
X253543Y218619
X250531
X259996Y203504
X249774Y188976
X237007Y195275
X234665Y197244
X234586Y202047
X229528Y196161
X211951Y196004
X212411Y188319
X223347Y183336
X208180Y175984
X200000Y182392
X172441Y177559
X169626Y165441
X171201Y200985
X171260Y204330
X176535Y206141
X179626Y208268
X182776Y208379
X176969Y197638
X172047Y227559
X169085Y227559
X159980Y231557
X165315Y246714
X175314Y257309
X160236Y262486
X158524Y282049
X169085Y285425
X172047
X176142Y282112
X172047Y295518
X169085
X157677Y297494
X159882Y303052
X181890Y297494
X198130Y301522
X215295Y297297
X215965Y282112
X212975Y277781
X219331
X227677Y283982
X230709Y286614
X233497Y289547
X236221Y292520
X245216Y305724
X245501Y262486
X236403Y248795
X238498Y246701
X222165Y246580
X218228Y262486
X220472Y218898
X222224Y215898
X225708Y215748
X203937Y214558
X201044
X198031
X198740Y232283
X227784Y161919
X235360Y166955
X253087Y161417
X267345Y157983
X269528Y169527
Y186614
X302419Y156949
X308565Y248329
X311417Y250787
X305683Y254724
X300456Y259226
X288720Y254724
X284625Y257480
X269724Y264583
X305728Y305689
X141200Y301628
X125197Y297474
X115038Y288976
X118661Y282049
X108960Y311417
X89081Y300000
X83858
X78347Y299640
X74016
X69685
Y295309
X74016
X78347
X64567
Y299640
X59472Y295309
X54331
Y299640
X49185
X49185Y295079
X43910
Y290533
Y299640
X42901Y219786
X42913Y215748
Y211811
X44488Y205124
X48425
X52362
Y201071
X48425
X44488
X56299
Y205008
X60236Y204918
Y201071
X64173Y201178
Y204918
X67610Y216535
X116526Y215597
X119685Y215628
X116535Y224803
X112606Y224765
X108283Y199882
X108268Y191979
X108283Y184050
X115748Y183711
X118888Y180315
X125394Y180807
X128786Y183353
X122441Y176772
X122638Y168275
X122835Y160716
X136437Y169012
X136673Y172156
X111614Y178347
X96850Y187845
X64173Y165638
Y161800
X60236Y161701
Y165638
X56299
Y161800
X52362Y161701
X48819
X48736Y165748
X52362Y165638
X40551Y165748
X40551Y161811
X38189Y157087
X48736Y156949
X150453Y196004
X154095Y194754
X141299Y230770
X111322Y313386
X109449Y327953
Y332677
Y337795
Y342498
Y347244
Y351969
Y356693
X119153Y352809
X114567Y371654
X106299Y383858
X99705
X95669Y316535
X126378Y330315
X154980Y349213
X39939Y361417
X162205Y366929
X174409Y367126
X179528Y349213
X174606Y328051
X159889Y332211
X164724Y317179
X221752Y317073
X216910Y332211
X215551Y352801
X216734Y356718
X220669Y358510
X226299Y353937
X229261Y350787
X233071Y348622
X236126Y346850
X216398Y365748
X212204Y365354
X201574
X199213Y367717
X174213Y408268
X162205Y402165
X263838Y331807
Y327772
X259291Y318815
X288130Y319346
X293366Y327772
X293346Y331807
X324449Y331870
Y327835
X319803Y319173
X348838Y319075
X353976Y327835
X353858Y331870
X362460Y340158
X361378Y349606
X385492Y331890
X385393Y327953
X380472Y318957
X410000Y319193
X414921Y327953
X415019Y331890
X446437
Y328051
X441889Y318996
X376929Y402362
X475866Y331890
Y328051
X470630Y318799
T02
X190275Y52995
X209960
T03
X207128Y107200
Y117200
X208268Y181968
Y191969
Y201969
X229261Y201561
Y211561
Y221561
X212362Y236620
Y246620
Y256620
X211910Y307211
X154882Y307218
X154980Y256557
Y246557
Y236557
X154882Y317218
Y327218
X211910Y327211
Y317211
T04
X164476Y69379
Y79379
Y89379
Y99379
Y109379
Y119379
T05
X171588Y49112
X314094Y283740
X346378Y283642
X375157Y283594
X407441Y283661
X435984Y283692
X468267Y283693
X285767Y283677
X253484Y283646
X263605Y225180
X279471
X180335Y239789
X180315Y251251
X165118Y210896
Y178666
X163779Y157874
X179921Y310478
X122893Y310486
X123031Y251108
X123091Y239628
X143071Y210897
X154095Y210896
X154094Y178665
X143071Y178667
X141339Y158268
X152362
X89081Y163779
X75590Y211024
X122835Y321502
X45472Y340354
X179528Y321600
T06
X71295Y371752
X85075
X97280
X109091
X120902
X132713
X144524
Y389469
X132713
X120902
X109091
X97280
X85075
X71295
X156335
X168146
X179957
X192161
Y371752
X179957
X168146
X156335
X215587
X227398
X239209
X251020
X262831
X274642
X286453
X298264
Y389469
X286453
X274642
X262831
X251020
X239209
X227398
X215587
X321689
X335469
X347673
X359484
X371295
X383106
X394917
X406728
X418539
X430350
X442555
X456335
Y371752
X442555
X430350
X418539
X406728
X394917
X383106
X371295
X359484
X347673
X335469
X321689
X470114
Y389469
T07
X186338Y42365
X213897
T08
X51413Y411909
X204366
X309484
X489996
T09
X115972Y48907
Y139852
M30
